HIERARCHY
ROOT Hips
{
	OFFSET 0.00000 0.00000 0.00000
	CHANNELS 6 Xposition Yposition Zposition Zrotation Yrotation Xrotation 
	JOINT LHipJoint
	{
		OFFSET 0 0 0
		CHANNELS 3 Zrotation Yrotation Xrotation
		JOINT LeftUpLeg
		{
			OFFSET 1.36337 -1.57426 1.11036
			CHANNELS 3 Zrotation Yrotation Xrotation
			JOINT LeftLeg
			{
				OFFSET 2.38468 -6.55187 0.00000
				CHANNELS 3 Zrotation Yrotation Xrotation
				JOINT LeftFoot
				{
					OFFSET 2.37166 -6.51609 0.00000
					CHANNELS 3 Zrotation Yrotation Xrotation
					JOINT LeftToeBase
					{
						OFFSET 0.29078 -0.79891 2.01393
						CHANNELS 3 Zrotation Yrotation Xrotation
						End Site
						{
							OFFSET 0.00000 -0.00000 1.07924
						}
					}
				}
			}
		}
	}
	JOINT RHipJoint
	{
		OFFSET 0 0 0
		CHANNELS 3 Zrotation Yrotation Xrotation
		JOINT RightUpLeg
		{
			OFFSET -1.36349 -1.57426 1.11036
			CHANNELS 3 Zrotation Yrotation Xrotation
			JOINT RightLeg
			{
				OFFSET -2.29562 -6.30717 0.00000
				CHANNELS 3 Zrotation Yrotation Xrotation
				JOINT RightFoot
				{
					OFFSET -2.40985 -6.62100 0.00000
					CHANNELS 3 Zrotation Yrotation Xrotation
					JOINT RightToeBase
					{
						OFFSET -0.23197 -0.63733 1.92232
						CHANNELS 3 Zrotation Yrotation Xrotation
						End Site
						{
							OFFSET -0.00000 -0.00000 1.01562
						}
					}
				}
			}
		}
	}
	JOINT LowerBack
	{
		OFFSET 0 0 0
		CHANNELS 3 Zrotation Yrotation Xrotation
		JOINT Spine
		{
			OFFSET -0.08565 2.03602 -0.24562
			CHANNELS 3 Zrotation Yrotation Xrotation
			JOINT Spine1
			{
				OFFSET -0.00036 2.05693 0.00216
				CHANNELS 3 Zrotation Yrotation Xrotation
				JOINT Neck
				{
					OFFSET 0 0 0
					CHANNELS 3 Zrotation Yrotation Xrotation
					JOINT Neck1
					{
						OFFSET -0.03664 1.69515 0.31789
						CHANNELS 3 Zrotation Yrotation Xrotation
						JOINT Head
						{
							OFFSET 0.00932 1.70181 -0.46013
							CHANNELS 3 Zrotation Yrotation Xrotation
							End Site
							{
								OFFSET 0.01243 1.77620 -0.19377
							}
						}
					}
				}
				JOINT LeftShoulder
				{
					OFFSET 0 0 0
					CHANNELS 3 Zrotation Yrotation Xrotation
					JOINT LeftArm
					{
						OFFSET 3.74344 0.81315 -0.36647
						CHANNELS 3 Zrotation Yrotation Xrotation
						JOINT LeftForeArm
						{
							OFFSET 4.97185 -0.00000 -0.00000
							CHANNELS 3 Zrotation Yrotation Xrotation
							JOINT LeftHand
							{
								OFFSET 3.35811 -0.00000 0.00000
								CHANNELS 3 Zrotation Yrotation Xrotation
								JOINT LeftFingerBase
								{
									OFFSET 0 0 0
									CHANNELS 3 Zrotation Yrotation Xrotation
									JOINT LeftHandIndex1
									{
										OFFSET 0.62278 -0.00000 0.00000
										CHANNELS 3 Zrotation Yrotation Xrotation
										End Site
										{
											OFFSET 0.50210 -0.00000 0.00000
										}
									}
								}
								JOINT LThumb
								{
									OFFSET 0 0 0
									CHANNELS 3 Zrotation Yrotation Xrotation
									End Site
									{
										OFFSET 0.50976 -0.00000 0.50976
									}
								}
							}
						}
					}
				}
				JOINT RightShoulder
				{
					OFFSET 0 0 0
					CHANNELS 3 Zrotation Yrotation Xrotation
					JOINT RightArm
					{
						OFFSET -3.75385 0.50666 -0.06525
						CHANNELS 3 Zrotation Yrotation Xrotation
						JOINT RightForeArm
						{
							OFFSET -4.96493 -0.00000 -0.00000
							CHANNELS 3 Zrotation Yrotation Xrotation
							JOINT RightHand
							{
								OFFSET -3.34929 -0.00000 0.00000
								CHANNELS 3 Zrotation Yrotation Xrotation
								JOINT RightFingerBase
								{
									OFFSET 0 0 0
									CHANNELS 3 Zrotation Yrotation Xrotation
									JOINT RightHandIndex1
									{
										OFFSET -0.63804 -0.00000 0.00000
										CHANNELS 3 Zrotation Yrotation Xrotation
										End Site
										{
											OFFSET -0.51441 -0.00000 0.00000
										}
									}
								}
								JOINT RThumb
								{
									OFFSET 0 0 0
									CHANNELS 3 Zrotation Yrotation Xrotation
									End Site
									{
										OFFSET -0.52226 -0.00000 0.52226
									}
								}
							}
						}
					}
				}
			}
		}
	}
}
MOTION
Frames: 11
Frame Time: 0.0571429
0.00 0.00 0.00 369.9360 74.4928 408.5330 0.0000 0.0000 0.0000 -4.5522 27.6277 -66.2848 33.1104 15.2383 131.5443 2.2194 7.4773 26.8201 0.7977 5.7009 15.9189 0.0000 0.0000 0.0000 -12.4067 -14.2764 -48.6633 -28.4820 -18.1794 115.5475 -1.4157 -8.8825 -27.2608 -0.7910 -5.6773 15.8509 -1.6512 -4.6201 52.5058 -4.0821 -6.0291 5.7866 -0.9997 -1.9442 -14.8776 7.0163 9.6736 -30.9309 -18.8659 16.5696 22.2296 -5.1636 5.1692 15.5052 0.0000 0.0000 0.0000 -35.5581 -15.0105 19.7655 72.6502 -58.8315 -45.0336 -0.0000 0.0000 -33.3359 37.0321 -5.3101 -3.9939 -7.1250 0.0000 -0.0000 7.6299 23.3514 -4.0151 0.0000 0.0000 0.0000 73.9501 44.8963 41.8842 -45.4138 50.9696 -22.5598 0.0000 -0.0000 -13.3574 -43.8390 -38.0018 30.5927 7.1250 -0.0000 -0.0000 -19.5337 -76.6024 14.5841
0.00 0.00 0.00 373.9680 67.9814 414.5070 0.0000 0.0000 0.0000 0.0289 27.4853 -61.2121 32.9766 15.3515 131.0373 0.1441 -4.7592 10.4836 1.9493 8.7597 25.0466 0.0000 0.0000 0.0000 -12.2084 -7.0991 -51.1697 -28.7038 -18.0770 116.2601 -1.3685 -10.6170 -28.2280 -1.2481 -7.0832 19.9620 -1.5591 -0.3016 44.0603 -2.7150 -0.6532 7.4177 -1.9311 0.1002 -12.4052 12.6004 12.4170 -31.1334 -15.4403 18.5794 31.1281 -4.5236 6.5960 20.6376 -0.0000 0.0000 0.0000 -48.1524 -34.8270 32.4197 29.7808 -40.7048 -11.2664 -0.0000 0.0000 -38.7498 39.2624 -20.1789 -15.7465 -7.1250 0.0000 -0.0000 6.7516 4.7376 -6.2151 -0.0000 0.0000 0.0000 74.0732 40.6096 36.8325 -43.2596 49.8868 -20.8990 0.0000 -0.0000 -4.7446 -45.2140 -36.8470 31.1394 7.1250 -0.0000 -0.0000 -22.9104 -75.7903 16.7701
0.00 0.00 0.00 419.6170 70.4471 455.2760 0.0000 0.0000 0.0000 1.7926 31.8343 -75.6019 31.8391 16.2364 126.8597 -1.0112 -19.9023 -2.8546 2.3764 -9.6097 -27.7219 0.0000 0.0000 0.0000 -11.0571 -18.9722 -44.7578 -29.1539 -17.8589 117.7193 -1.6790 -4.7972 -26.5974 -1.0769 -6.5964 18.5251 -7.4993 -0.8648 50.4194 -5.3714 -3.9612 8.0968 -0.7886 -0.7350 -11.4763 10.9735 12.8088 -29.0612 -14.6638 18.1037 23.6192 -3.6991 6.6996 15.7105 0.0000 0.0000 0.0000 -34.9728 -53.0416 21.1872 21.6792 -32.6125 -6.4121 -0.0000 0.0000 -29.1761 31.2495 -17.5501 -10.3690 -7.1250 0.0000 -0.0000 2.1331 9.6904 -1.7448 0.0000 0.0000 0.0000 74.5575 41.0739 31.5965 -41.3049 48.8243 -19.4158 0.0000 -0.0000 -14.5111 -44.8761 -40.0398 32.6414 7.1250 -0.0000 -0.0000 -22.6568 -79.0844 18.0929
0.00 0.00 0.00 503.1250 64.2594 531.8300 0.0000 0.0000 0.0000 -1.4738 18.6664 -98.9187 33.0814 15.2629 131.4343 -1.8779 -28.5207 -6.9668 1.2357 -7.0492 -19.8612 0.0000 0.0000 0.0000 -33.2308 -53.6316 -29.7678 -31.8826 -16.2049 127.0156 -0.5645 14.4046 -15.6943 -0.8869 6.0030 -16.7931 -7.7240 -4.4693 52.2665 -4.6856 -7.3827 8.9632 1.4647 -1.9117 -10.5574 -7.2386 1.9605 -35.9167 0.6833 6.5370 25.6604 2.8702 2.1017 14.4984 0.0000 -0.0000 0.0000 -70.9286 -82.9783 57.9075 15.4241 -24.7335 -3.4014 -0.0000 0.0000 -11.4934 27.6989 -4.6139 -2.4182 -7.1250 0.0000 -0.0000 0.7795 24.7722 -0.3812 0.0000 -0.0000 0.0000 76.1564 31.1060 45.8672 -50.3778 53.1467 -26.4762 0.0000 -0.0000 -36.8590 -36.9895 -43.2066 27.2806 7.1250 -0.0000 -0.0000 2.0941 -79.5964 -1.6816
0.00 0.00 0.00 518.7680 64.6210 543.1670 0.0000 0.0000 0.0000 -4.5046 15.6526 -98.9975 33.8184 14.6020 134.2939 0.5417 -21.0071 -18.7564 2.2280 -9.3256 -26.8192 0.0000 0.0000 0.0000 -24.8112 -47.4162 -30.7902 -30.3446 -17.2115 121.6697 -0.2248 6.5347 -8.9693 -0.5845 -4.8950 13.6094 -8.8222 -4.3242 54.9937 -5.7809 -8.0669 8.7647 0.9902 -2.0229 -11.1053 -11.3082 -7.6098 -35.1887 6.5191 -6.1927 13.3964 3.0467 -2.5480 10.3624 0.0000 -0.0000 0.0000 -50.6411 -85.3091 51.3461 14.7566 -23.8059 -3.1270 -0.0000 0.0000 -21.8194 13.2737 4.6314 1.0913 -7.1250 0.0000 -0.0000 -11.0285 34.5690 2.8683 0.0000 -0.0000 0.0000 89.9156 49.2060 52.0648 -16.7793 26.5659 -3.9881 0.0000 -0.0000 -29.9385 -39.4601 -36.8542 26.2764 7.1250 -0.0000 -0.0000 -9.9165 -73.9350 6.8019
0.00 0.00 0.00 521.6890 65.4367 544.8540 0.0000 0.0000 0.0000 -3.9969 17.0282 -96.7145 33.4333 14.9559 132.7843 0.6324 -21.3388 -19.5457 2.0883 -9.0476 -25.9443 0.0000 0.0000 0.0000 -21.6262 -46.3573 -32.0935 -30.0796 -17.3648 120.7781 -0.2591 5.3694 -9.2418 -0.6795 -5.2706 14.6821 -8.8661 -3.4919 57.3816 -5.5906 -7.2301 8.5115 0.7656 -1.5692 -11.5911 -11.7476 -8.5155 -34.4525 7.1821 -7.3365 11.7236 3.1456 -2.9899 9.7877 -0.0000 -0.0000 0.0000 -22.2326 -85.8386 23.9023 15.0172 -24.1700 -3.2330 -0.0000 0.0000 -24.8652 8.2060 2.6645 0.3841 -7.1250 0.0000 -0.0000 -14.7701 32.4187 4.6858 -0.0000 -0.0000 0.0000 90.0408 51.3009 50.7188 -15.1445 24.3470 -3.2853 0.0000 -0.0000 -29.0528 -36.9161 -37.8986 24.7721 7.1250 -0.0000 -0.0000 -4.3297 -74.1773 2.9865
0.00 0.00 0.00 534.3020 68.7253 563.3770 0.0000 0.0000 0.0000 -0.7804 16.0051 -105.2402 29.8393 17.4992 119.9760 1.2503 -16.1234 -21.4909 1.2244 -7.0183 -19.7695 0.0000 0.0000 0.0000 -7.3899 -38.3110 -91.7703 -30.4495 -17.1492 122.0249 -1.4047 13.3629 -21.8334 -0.6322 5.0873 -14.1577 -7.4872 -0.6553 48.6122 -1.3346 -2.0995 10.6760 2.8042 -0.0288 -8.0801 -6.3454 -2.7057 -35.3657 -5.0432 0.9461 14.7460 -0.6994 -0.5521 10.3610 0.0000 0.0000 0.0000 2.2423 -43.1295 4.1342 24.2973 -35.4770 -7.8784 -0.0000 0.0000 -25.1442 16.4367 -5.8630 -1.7261 -7.1250 0.0000 -0.0000 -7.6125 23.8765 3.9130 0.0000 0.0000 0.0000 98.4952 67.4801 51.0026 -9.9152 16.6069 -1.4506 0.0000 -0.0000 -18.7758 -41.6132 -37.8146 28.5725 7.1250 -0.0000 -0.0000 -14.1488 -75.6804 10.2536
0.00 0.00 0.00 520.2340 61.3085 546.3930 0.0000 0.0000 0.0000 1.8541 9.3227 -100.8419 24.9595 19.3998 104.6412 0.2127 -13.1006 -11.6895 1.1960 -6.9391 -19.5351 0.0000 0.0000 0.0000 -3.7163 -45.5818 -98.1767 -32.8927 -15.4216 130.7209 -1.8550 19.4794 -26.2150 -2.6368 10.0825 -29.2442 -6.1917 -1.4978 50.1794 -2.3490 -2.3761 10.2634 1.1699 0.1090 -8.8890 -7.2692 -0.7323 -35.6210 -5.5838 4.2989 15.8207 -0.1474 0.7943 10.8164 0.0000 -0.0000 0.0000 1.2431 -36.7325 9.9169 29.7423 -40.6715 -11.2413 -0.0000 0.0000 -21.6373 14.4908 -10.0382 -2.5793 -7.1250 0.0000 -0.0000 -8.8894 19.6816 5.4415 0.0000 -0.0000 0.0000 103.1387 69.4415 52.1434 -10.3918 17.3500 -1.5898 0.0000 -0.0000 -16.4435 -50.6315 -45.5879 41.0431 7.1250 -0.0000 -0.0000 -66.8810 -85.4092 62.5815
0.00 0.00 0.00 518.6940 52.1961 539.4750 0.0000 0.0000 0.0000 2.1002 2.8712 -93.9720 20.3145 19.9976 90.9194 -0.2908 -10.6915 -1.3005 1.2567 -7.1067 -20.0319 0.0000 0.0000 0.0000 2.0890 -47.0826 -97.2738 -33.6420 -14.7665 133.5980 -3.4235 13.0740 -33.5084 -1.5773 7.9238 -22.4830 -3.9552 -3.4927 55.8679 -3.3725 -3.1567 10.0339 -0.7842 0.2174 -9.9723 0.6499 1.2488 -35.6820 -10.2615 4.1664 13.2219 -3.1074 0.7430 10.1557 -0.0000 -0.0000 0.0000 1.8360 -38.8496 14.0173 30.4735 -41.2959 -11.7209 -0.0000 0.0000 -25.0182 18.7165 -16.8230 -5.6002 -7.1250 0.0000 -0.0000 -6.0546 12.3490 4.6463 -0.0000 -0.0000 0.0000 54.9470 65.7790 34.9011 -17.7246 27.8031 -4.4200 0.0000 -0.0000 -29.1049 -22.3701 -47.8854 16.9773 7.1250 -0.0000 -0.0000 40.0067 -77.4764 -31.2359
0.00 0.00 0.00 518.4990 51.5078 535.3550 0.0000 0.0000 0.0000 1.8710 2.3857 -87.5824 17.9544 19.8994 84.0093 -0.2698 -9.4986 0.8165 2.3496 -9.5592 -27.5606 0.0000 0.0000 0.0000 2.1573 -43.3885 -92.5249 -33.3183 -15.0579 132.3401 -3.9436 11.9188 -36.0338 -1.1207 6.7247 -18.9022 -3.2580 -5.4091 56.9967 0.3044 -4.6478 9.0345 3.6553 -0.6385 -10.9369 0.3102 1.7629 -34.9577 -11.2109 5.2296 13.5912 -3.2078 1.0815 10.2984 0.0000 0.0000 0.0000 -24.6185 -19.5408 23.3093 30.2467 -41.1040 -11.5715 -0.0000 0.0000 -20.8328 15.7688 -13.2357 -3.6992 -7.1250 0.0000 -0.0000 -7.9634 16.3315 5.4563 0.0000 0.0000 0.0000 23.4695 52.2879 27.4626 -31.5727 42.2039 -12.4528 0.0000 -0.0000 -24.3541 -7.0695 -33.0769 3.8721 7.1250 -0.0000 -0.0000 29.5448 -60.7689 -11.9532
0.00 0.00 0.00 506.0340 63.1442 524.9240 0.0000 0.0000 0.0000 -0.0686 6.7230 -76.2810 15.0902 19.4120 75.5083 0.0466 -1.7861 -3.8472 2.1902 -9.2515 -26.5853 0.0000 0.0000 0.0000 1.1118 -18.9227 -85.8097 -29.6370 -17.6090 119.3051 -4.0797 -6.0064 -40.5364 -2.1350 9.1418 -26.2400 -0.4794 -3.3206 47.8663 1.6370 -1.5285 10.2594 2.5483 0.2330 -10.0453 1.3917 2.7392 -34.5162 -13.8214 6.5524 12.0996 -4.0592 1.5437 9.9689 0.0000 0.0000 0.0000 -47.7568 0.0636 30.3702 41.6097 -48.9952 -19.6455 -0.0000 0.0000 -18.1263 15.5030 -18.1257 -4.9321 -7.1250 0.0000 -0.0000 -8.2238 11.3650 6.5111 0.0000 0.0000 0.0000 49.9035 48.1795 10.7989 -25.8869 37.0968 -8.8193 0.0000 -0.0000 -22.2031 -26.3314 -30.9502 14.2803 7.1250 -0.0000 -0.0000 6.4809 -63.6539 -2.9377
